<svg xmlns="http://www.w3.org/2000/svg" width="49.5" height="49.5" viewBox="0 0 49.5 49.5"><g transform="translate(-319.162 -344.801)"><line x1="48" transform="translate(319.912 366.175)" stroke-width="1.5" stroke="#fc91aa" stroke-linecap="round" stroke-linejoin="round" fill="none"></line><line x1="39.755" transform="translate(323.6 383.139)" stroke-width="1.5" stroke="#fc91aa" stroke-linecap="round" stroke-linejoin="round" fill="none"></line><line x1="39.755" transform="translate(323.791 369.86)" stroke-width="1.5" stroke="#fc91aa" stroke-linecap="round" stroke-linejoin="round" fill="none"></line><path d="M353.571,378.923a1.879,1.879,0,1,0,1.879,1.879,1.879,1.879,0,0,0-1.879-1.879Z" transform="translate(10.311 10.869)" fill="none" stroke="#fc91aa" stroke-linecap="round" stroke-linejoin="round" stroke-width="1.5"></path><path d="M323.087,378.923a1.879,1.879,0,1,0,1.879,1.879,1.88,1.88,0,0,0-1.879-1.879Z" transform="translate(0.422 10.869)" fill="none" stroke="#fc91aa" stroke-linecap="round" stroke-linejoin="round" stroke-width="1.5"></path><line y2="22.809" transform="translate(363.881 366.176)" stroke-width="1.5" stroke="#fc91aa" stroke-linecap="round" stroke-linejoin="round" fill="none"></line><line y2="22.809" transform="translate(323.508 366.176)" stroke-width="1.5" stroke="#fc91aa" stroke-linecap="round" stroke-linejoin="round" fill="none"></line><path d="M333.945,362.514c1.825-1.21,3.013-4.841,2.871-6.684h-9.68c-.155,2.043,1.275,5.626,2.871,6.684" transform="translate(2.339 3.348)" fill="none" stroke="#fc91aa" stroke-linecap="round" stroke-linejoin="round" stroke-width="1.5"></path><line x2="1.693" y2="13.817" transform="translate(354.987 348.786)" stroke-width="1.5" stroke="#fc91aa" stroke-linecap="round" stroke-linejoin="round" fill="none"></line><path d="M341.438,360.105l.972-6.489.842-5.625h11.465a.564.564,0,0,1,.562.541c.705,6.509-1.136,8.734-3.687,13.277l.3,2.028a1.2,1.2,0,0,1-1.247,1.247h-8.52a1.2,1.2,0,0,1-1.247-1.247l.591-3.957c-2.129-1.808-2.1-2.731-2.488-5.642a9.045,9.045,0,0,0-1.765-4.517,7.888,7.888,0,0,0-1.592-1.73h2.191l4.592,5.625" transform="translate(5.089 0.795)" fill="none" stroke="#fc91aa" stroke-linecap="round" stroke-linejoin="round" stroke-width="1.5"></path><line y2="2.721" transform="translate(351.876 345.551)" stroke-width="1.5" stroke="#fc91aa" stroke-linecap="round" stroke-linejoin="round" fill="none"></line></g></svg>