<svg xmlns="http://www.w3.org/2000/svg" width="47.5" height="49.5" viewBox="0 0 47.5 49.5"><g transform="translate(-321.214 -282.577)"><path d="M350.136,307.321l-1.182,13.065a.857.857,0,0,1-.811.812h-16.13a.851.851,0,0,1-.811-.812l-1.18-13.065" transform="translate(3.537 10.129)" fill="none" stroke="#fc91aa" stroke-linecap="round" stroke-linejoin="round" stroke-width="1.5"></path><path d="M334.033,297.819a32.967,32.967,0,0,0-3.2-14.095q1.015.732,1.917,1.525c.6.528,2.308.62,2.837,1.183s-.119,1.607.339,2.206,2.024.758,2.412,1.384-1.367,2.226.356,3.379" transform="translate(3.846 0.168)" fill="none" stroke="#fc91aa" stroke-linecap="round" stroke-linejoin="round" stroke-width="1.5"></path><path d="M347.041,309.638c-.486-7.35,3.487-13.781,5.873-17.178,3.372-4.8,7.992-6.9,9.292-9.032q-1.269.267-2.466.631c-.8.242-2.393-.324-3.14-.024s-.653,1.476-1.354,1.835-2.2-.092-2.849.317-.458,1.692-1.061,2.155-2,.108-2.556.613-.266,1.881-.768,2.428-1.808.279-2.263.866-.07,2.038-.475,2.658-1.933.7-2.288,1.354.445,1.884.139,2.563a1.613,1.613,0,0,1-.872.629,38.769,38.769,0,0,1,.414-4.741c.8-5.494,3.894-9.016,4.077-11.383-.66.459-1.283.941-1.872,1.441s-2.236.562-2.753,1.1.09,1.552-.361,2.122-1.964.7-2.346,1.3.356,1.675.036,2.3-1.7.809-1.958,1.458.61,1.776.415,2.445-1.455.892-1.59,1.579.849,1.847.774,2.546-2.182,1.425-2.2,2.133,2.041,1.419,2.076,2.135-1.411,1.453-1.321,2.172c.195,1.571,2.9.836,1.249,3.585" transform="translate(5.757)" fill="none" stroke="#fc91aa" stroke-linecap="round" stroke-linejoin="round" stroke-width="1.5"></path><path d="M334.445,308.64c-.1-5.974-2.716-11.057-4.411-13.943-2.812-4.787-7.007-6.883-8.069-9.006q1.175.267,2.277.629c.734.242,2.283-.323,2.962-.023s.5,1.472,1.136,1.829,2.082-.092,2.662.317.3,1.687.835,2.146,1.883.108,2.364.612.105,1.876.538,2.42,1.684.277,2.069.863-.091,2.032.242,2.649c.152.283,1.876.31,2.735.96,1.027.778-.481,3.235.7,3" transform="translate(0 0.998)" fill="none" stroke="#fc91aa" stroke-linecap="round" stroke-linejoin="round" stroke-width="1.5"></path><path d="M328.814,302.744H353.05a.785.785,0,0,1,.811.809l-.474,4.322a.851.851,0,0,1-.811.811H329.288a.849.849,0,0,1-.811-.811l-.472-4.322a.784.784,0,0,1,.809-.809Z" transform="translate(2.679 8.197)" fill="none" stroke="#fc91aa" stroke-linecap="round" stroke-linejoin="round" stroke-width="1.5"></path></g></svg>