<svg xmlns="http://www.w3.org/2000/svg" width="36.5" height="49.808" viewBox="0 0 36.5 49.808"><g transform="translate(-389.914 -347.251)"><line y2="8.057" transform="translate(407.483 365.927)" stroke-width="1.5" stroke="#fc91aa" stroke-linecap="round" stroke-linejoin="round" fill="none"></line><path d="M403.467,366.2l-4.045,1.806v8.722h8.026v-8.722l-3.981-1.806Z" transform="translate(4.014 7.783)" fill="none" stroke="#fc91aa" stroke-linecap="round" stroke-linejoin="round" stroke-width="1.5"></path><path d="M407.277,360.586h8.47a1.534,1.534,0,0,1,1.525,1.524v27.334a1.542,1.542,0,0,1-1.525,1.524H392.188a1.536,1.536,0,0,1-1.524-1.524V362.11a1.529,1.529,0,0,1,1.524-1.524Z" transform="translate(0 5.341)" fill="none" stroke="#fc91aa" stroke-linecap="round" stroke-linejoin="round" stroke-width="1.5"></path><path d="M409.408,384.348h2.851a4.8,4.8,0,0,0,1.841-.37,4.791,4.791,0,0,0,2.609-2.609,4.792,4.792,0,0,0,.37-1.841V368.946a4.812,4.812,0,0,0-1.29-3.269c-.039-.047-.08-.093-.123-.136h0a4.852,4.852,0,0,0-3.407-1.415h-2.851" transform="translate(8.584 6.881)" fill="none" stroke="#fc91aa" stroke-linecap="round" stroke-linejoin="round" stroke-width="1.5"></path><path d="M396.316,362.071a4.273,4.273,0,0,1-.5-5.62,4.119,4.119,0,0,0-.363-5.47m7.234,10.288A4.461,4.461,0,0,1,402,354.7a4.293,4.293,0,0,0-.5-6.393m7.837,13.762a4.275,4.275,0,0,1-.5-5.62,4.117,4.117,0,0,0-.363-5.47" transform="translate(2.018 0)" fill="none" stroke="#fc91aa" stroke-linecap="round" stroke-linejoin="round" stroke-width="1.5"></path></g></svg>