<svg xmlns="http://www.w3.org/2000/svg" width="47.543" height="49.5" viewBox="0 0 47.543 49.5"><g transform="translate(-126.79 -215.97)"><path d="M142.85,240.533h9.827c4.585,0,9.159-3.812,8.337-8.3l-1.957-10.672c-.479-2.616-2.191-4.841-4.862-4.841H141.332c-2.67,0-4.383,2.221-4.862,4.841l-1.957,10.672c-.822,4.491,3.752,8.3,8.337,8.3Z" transform="translate(2.798 0)" fill="none" stroke="#fc91aa" stroke-linecap="round" stroke-linejoin="round" stroke-width="1.5"></path><path d="M137.042,235.859h20.944A2.018,2.018,0,0,1,160,237.867V239.1a2.018,2.018,0,0,1-2.017,2.007H137.042a2.018,2.018,0,0,1-2.017-2.007v-1.236a2.018,2.018,0,0,1,2.017-2.008Z" transform="translate(3.047 7.812)" fill="none" stroke="#fc91aa" stroke-linecap="round" stroke-linejoin="round" stroke-width="1.5"></path><path d="M136.155,247.972a2,2,0,1,1-2,2,2,2,0,0,1,2-2Z" transform="translate(2.719 12.756)" fill="none" stroke="#fc91aa" stroke-linecap="round" stroke-linejoin="round" stroke-width="1.5"></path><path d="M144.431,247.972a2,2,0,1,1-2,2,2,2,0,0,1,2-2Z" transform="translate(6.13 12.756)" fill="none" stroke="#fc91aa" stroke-linecap="round" stroke-linejoin="round" stroke-width="1.5"></path><path d="M152.707,247.972a2,2,0,1,1-2,2,2,2,0,0,1,2-2Z" transform="translate(9.54 12.756)" fill="none" stroke="#fc91aa" stroke-linecap="round" stroke-linejoin="round" stroke-width="1.5"></path><line y2="11.526" transform="translate(150.561 248.922)" stroke-width="1.5" stroke="#fc91aa" stroke-linecap="round" stroke-linejoin="round" fill="none"></line><path d="M136.162,248.828a8.543,8.543,0,0,1,2.519-2.476,13.218,13.218,0,0,1,3.736-1.669,17.393,17.393,0,0,1,9.15,0,13.218,13.218,0,0,1,3.736,1.669,8.544,8.544,0,0,1,2.519,2.476" transform="translate(3.569 11.164)" fill="none" stroke="#fc91aa" stroke-linecap="round" stroke-linejoin="round" stroke-width="1.5"></path><path d="M127.561,230.122l3.029-.087c6.009-.191-.576,13.585,6.241,13.456.13,0,2.264-.01,2.405-.023" transform="translate(0 5.434)" fill="none" stroke="#fc91aa" stroke-linecap="round" stroke-linejoin="round" stroke-width="1.5"></path><path d="M163.529,230.122l-3.029-.087c-6.007-.191.576,13.585-6.241,13.456-.13,0-2.264-.01-2.405-.023" transform="translate(10.032 5.434)" fill="none" stroke="#fc91aa" stroke-linecap="round" stroke-linejoin="round" stroke-width="1.5"></path><line y2="2.038" transform="translate(150.561 241.632)" stroke-width="1.5" stroke="#fc91aa" stroke-linecap="round" stroke-linejoin="round" fill="none"></line></g></svg>