<svg xmlns="http://www.w3.org/2000/svg" xmlns:xlink="http://www.w3.org/1999/xlink" fill="#DF9B61" height="800px" width="800px" id="Layer_1" viewBox="0 0 512 512" xml:space="preserve"><g id="SVGRepo_bgCarrier" stroke-width="0"></g><g id="SVGRepo_tracerCarrier" stroke-linecap="round" stroke-linejoin="round"></g><g id="SVGRepo_iconCarrier"> <g> <g> <path d="M334.304,30.41l-44.686-19.151C289.091,4.964,283.807,0,277.378,0h-42.756c-6.429,0-11.713,4.964-12.24,11.26 l-44.686,19.15c-9.248,3.963-15.224,13.027-15.224,23.088v33.867c0,7.142,4.552,13.458,11.329,15.718l16.003,5.335l9.535,28.606 c3.638,10.914,4.086,22.584,1.297,33.745l-12.651,50.608c-5.581,22.318-8.41,45.302-8.41,68.31v205.746 c0,9.136,7.432,16.568,16.568,16.568h119.716c9.136,0,16.568-7.432,16.568-16.568V291.141c0-22.558-2.721-45.102-8.087-67.009 l-13.098-53.475c-2.713-11.076-2.24-22.648,1.365-33.467l9.591-28.772l16.003-5.335c6.776-2.26,11.328-8.576,11.328-15.718V53.498 C349.528,43.437,343.552,34.373,334.304,30.41z M238.363,16.033h35.273v9.086c0,3.705-6.871,9.086-17.637,9.086 c-10.766,0-17.637-5.381-17.637-9.086V16.033z M188.125,90.956l-9.254-3.085c-0.219-0.073-0.366-0.277-0.366-0.507v-25.79 l6.958,6.958c1.716,1.717,2.662,3.998,2.662,6.425V90.956z M196.801,57.196l-12.272-12.271l38.115-16.335 c2.203,12.384,16.059,21.647,33.356,21.647c3.287,0,6.445-0.341,9.428-0.967c-20.62,27.071-46.959,49.095-58.942,58.488 l-2.327-6.98v-25.82C204.159,68.249,201.546,61.941,196.801,57.196z M316.391,291.142v204.29h0.001 c0,0.295-0.239,0.534-0.534,0.534H196.142c-0.295,0-0.534-0.239-0.534-0.534V289.686c0-21.699,2.668-43.374,7.93-64.422 l7.456-29.823h89.808l7.962,32.506C313.825,248.608,316.391,269.869,316.391,291.142z M214.919,179.742l1.271-5.086 c1.119-4.475,1.824-9.014,2.121-13.566h75.311c0.283,4.489,0.963,8.967,2.045,13.381l1.291,5.271H214.919z M315.197,57.196 c-4.744,4.745-7.356,11.053-7.356,17.762v25.819l-10.447,31.342c-1.479,4.438-2.535,8.978-3.179,13.562h-76.463 c-0.641-4.64-1.704-9.236-3.202-13.73l-2.695-8.084c11.673-8.718,60.059-46.593,84.121-92.44l31.494,13.497L315.197,57.196z M333.495,87.364c0,0.231-0.146,0.435-0.366,0.508l-9.254,3.085V74.958c0-2.427,0.945-4.708,2.66-6.424l6.96-6.96V87.364z"></path> </g> </g> </g></svg>