<svg xmlns="http://www.w3.org/2000/svg" xmlns:xlink="http://www.w3.org/1999/xlink" fill="#DF9B61" height="800px" width="800px" id="Capa_1" viewBox="0 0 34.421 34.421" xml:space="preserve" stroke="#DF9B61"><g id="SVGRepo_bgCarrier" stroke-width="0"></g><g id="SVGRepo_tracerCarrier" stroke-linecap="round" stroke-linejoin="round"></g><g id="SVGRepo_iconCarrier"> <g> <g id="c12_card"> <path d="M33.646,4.683H0.773C0.35,4.683,0,4.933,0,5.24v23.94c0,0.304,0.35,0.558,0.773,0.558h32.873 c0.429,0,0.775-0.254,0.775-0.558V5.24C34.422,4.933,34.075,4.683,33.646,4.683z M14.449,23.863H14.41 c0.035-1.906-0.814-3.846-0.814-3.846c-0.248-0.559-1.562-1.062-2.018-1.219c-0.699-1.54-0.323-3.485-0.323-3.485 c-0.125,0.553-0.282,0.767-0.282,0.767c-0.126,0.998-0.938,1.821-0.938,1.821c-0.016,0.27,0.02,0.497,0.08,0.693 c-1.257,2.032-2.287,0.97-2.793,0.138c0.096-0.221,0.154-0.492,0.137-0.831c0,0-0.817-0.823-0.941-1.821 c0,0-0.158-0.214-0.281-0.767c0,0,0.381,1.941-0.318,3.479c-0.546,0.232-1.089,0.396-1.089,0.396 c-0.59,0.226-0.838,0.565-0.838,0.565c-0.353,0.524-0.578,1.309-0.725,2.057V10.68h11.182V23.863z M31.451,22.367H16.758v-1.236 h14.693V22.367z M31.451,18.061H16.758v-1.24h14.693V18.061z M31.451,13.511H16.758v-1.238h14.693V13.511z"></path> <path d="M10.137,14.06c0.033,0.126,0.244,0.789,0.938,1.085c0,0,0.027-0.269,0.104-0.296c0,0,0.086,0.045,0.109,0.146 c0,0,0.184-1.737-0.606-2.388l0.003-0.006c-1.654-1.456-3.52-0.35-3.52-0.35c-1.369,0.882-0.985,2.784-0.985,2.784 C8.752,15.279,10.098,14.096,10.137,14.06z"></path> </g> <g id="Capa_1_177_"> </g> </g> </g></svg>