<svg xmlns="http://www.w3.org/2000/svg" xmlns:xlink="http://www.w3.org/1999/xlink" fill="#DF9B61" height="800px" width="800px" id="Layer_1" viewBox="0 0 512 512" xml:space="preserve"><g id="SVGRepo_bgCarrier" stroke-width="0"></g><g id="SVGRepo_tracerCarrier" stroke-linecap="round" stroke-linejoin="round"></g><g id="SVGRepo_iconCarrier"> <g> <g> <path d="M330.667,256c-11.776,0-21.333-9.536-21.333-21.333V128h12.501L352,158.165v55.168h115.499L416,161.835V21.333 C416,9.536,406.443,0,394.667,0H53.333C41.557,0,32,9.536,32,21.333v405.333C32,438.464,41.557,448,53.333,448h64v42.667 c0,11.797,9.557,21.333,21.333,21.333h320c11.776,0,21.333-9.536,21.333-21.333V256H330.667z M117.333,106.667v298.667H74.667 V42.667h298.667v76.501L352,97.835l-6.251-6.251c-3.989-4.011-9.429-6.251-15.083-6.251h-21.333H138.667 C126.891,85.333,117.333,94.869,117.333,106.667z M288,234.667c0,11.797-9.557,21.333-21.333,21.333h-64 c-11.776,0-21.333-9.536-21.333-21.333c0-11.797,9.557-21.333,21.333-21.333h64C278.443,213.333,288,222.869,288,234.667z M394.667,426.667h-192c-11.776,0-21.333-9.536-21.333-21.333c0-11.797,9.557-21.333,21.333-21.333h192 c11.776,0,21.333,9.536,21.333,21.333C416,417.131,406.443,426.667,394.667,426.667z M394.667,341.333h-192 c-11.776,0-21.333-9.536-21.333-21.333s9.557-21.333,21.333-21.333h192c11.776,0,21.333,9.536,21.333,21.333 S406.443,341.333,394.667,341.333z"></path> </g> </g> </g></svg>