<svg xmlns="http://www.w3.org/2000/svg" xmlns:xlink="http://www.w3.org/1999/xlink" fill="#DA955A" height="800px" width="800px" id="Layer_1" viewBox="0 0 485 485" xml:space="preserve"><g id="SVGRepo_bgCarrier" stroke-width="0"></g><g id="SVGRepo_tracerCarrier" stroke-linecap="round" stroke-linejoin="round"></g><g id="SVGRepo_iconCarrier"> <g> <polygon points="259.139,171.834 232.979,186.519 255.983,227.5 182.493,227.5 182.493,210.741 152.493,210.741 152.493,257.5 255.983,257.5 232.979,298.481 259.139,313.166 290.387,257.5 337.507,257.5 337.507,227.5 290.387,227.5 "></polygon> <path d="M470,188.635h15V75.552H0v113.083h15c29.701,0,53.865,24.164,53.865,53.865S44.701,296.365,15,296.365H0v113.083h485 V296.365h-15c-29.701,0-53.865-24.164-53.865-53.865S440.299,188.635,470,188.635z M455,325.021v54.427H30v-54.427 c39.109-7.092,68.865-41.398,68.865-82.521c0-41.123-29.755-75.429-68.865-82.521v-54.427h425v54.427 c-39.109,7.092-68.865,41.398-68.865,82.521C386.135,283.624,415.891,317.929,455,325.021z"></path> </g> </g></svg>