<svg xmlns="http://www.w3.org/2000/svg" width="47.5" height="49.707" viewBox="0 0 47.5 49.707"><g transform="translate(-450.354 -282.799)"><line x2="24.093" transform="translate(471.397 331.571)" stroke-width="1.5" stroke="#fc91aa" stroke-linecap="round" stroke-linejoin="round" fill="none"></line><path d="M467.062,289.211l6.882,4.031c4.483,2.624,4.866,10.541.852,17.593l-.51.9L451.1,298.155l.51-.9c4.014-7.051,10.965-10.672,15.448-8.048Z" transform="translate(0 2.07)" fill="none" stroke="#fc91aa" stroke-linecap="round" stroke-linejoin="round" stroke-width="1.5"></path><path d="M469.709,283.829l2.963,1.735c1.931,1.13,1.451,5.671-1.066,10.094l-.319.562-9.981-5.845.319-.562c2.517-4.422,6.154-7.114,8.084-5.984Z" transform="translate(4.207)" fill="none" stroke="#fc91aa" stroke-linecap="round" stroke-linejoin="round" stroke-width="1.5"></path><path d="M481.992,294.159a4.1,4.1,0,1,1-4.041,4.1,4.071,4.071,0,0,1,4.041-4.1Z" transform="translate(11.07 4.58)" fill="none" stroke="#fc91aa" stroke-linecap="round" stroke-linejoin="round" stroke-width="1.5"></path><line x2="12.801" y2="7.835" transform="translate(477.403 292.105)" stroke-width="1.5" stroke="#fc91aa" stroke-linecap="round" stroke-linejoin="round" fill="none"></line><line x1="7.519" y2="24.773" transform="translate(483.443 306.798)" stroke-width="1.5" stroke="#fc91aa" stroke-linecap="round" stroke-linejoin="round" fill="none"></line><path d="M455.03,298.106a7.686,7.686,0,0,0,.432,4.454,7.558,7.558,0,0,0,1.593,2.4,7.439,7.439,0,0,0,2.361,1.616,7.362,7.362,0,0,0,5.786,0c.222-.1.439-.2.65-.318s.415-.242.613-.377.388-.281.572-.434" transform="translate(1.557 6.287)" fill="none" stroke="#fc91aa" stroke-linecap="round" stroke-linejoin="round" stroke-width="1.5"></path></g></svg>